<svg width="58" height="44" viewBox="0 0 58 44" fill="none" xmlns="http://www.w3.org/2000/svg">
<path d="M47.9922 32.9663C47.8237 32.9663 47.0713 32.9551 46.8916 32.9214V30.6416C47.0488 30.6753 47.4644 30.6865 47.6553 30.6865C48.8345 30.6865 49.4971 30.2373 49.8564 29.103L50.0024 28.564L45.6113 16.2217H48.666L51.541 25.8125H51.7319L54.5957 16.2217H57.5381L53.1021 28.9009C52.0576 31.9556 50.7437 32.9663 47.9922 32.9663Z" fill="white"/>
<path d="M39.1978 26.52C40.8823 26.52 42.1401 25.4307 42.1401 24.0044V23.0273L39.3662 23.207C37.8052 23.3081 37.0752 23.8696 37.0752 24.8691C37.0752 25.9023 37.9624 26.52 39.1978 26.52ZM38.3779 28.71C36.0083 28.71 34.3125 27.2725 34.3125 25.0264C34.3125 22.8027 35.9858 21.5225 38.9731 21.3428L42.1401 21.1519V20.1187C42.1401 18.917 41.3315 18.2432 39.8267 18.2432C38.5464 18.2432 37.6704 18.6924 37.4121 19.5234H34.7842C35.0088 17.356 37.0415 15.9746 39.9614 15.9746C43.1172 15.9746 44.8916 17.5132 44.8916 20.1187V28.5078H42.2075V26.8232H42.0166C41.3315 28.0137 39.9839 28.71 38.3779 28.71Z" fill="white"/>
<path d="M21.7773 12.3022H28.3135C31.5479 12.3022 33.7603 14.5146 33.7603 17.7827C33.7603 20.9946 31.4692 23.1958 28.1899 23.1958H24.6748V28.5078H21.7773V12.3022ZM24.6748 14.728V20.7925H27.5386C29.605 20.7925 30.8179 19.7144 30.8179 17.7827C30.8179 15.7949 29.6387 14.728 27.5498 14.728H24.6748Z" fill="white"/>
<path d="M13.4106 15.3008C13.916 15.3008 15.7241 15.3457 16.9033 17.064C16.8022 17.1426 15.0054 18.1533 15.0054 20.4219C15.0054 23.0498 17.2964 23.9819 17.3638 24.0044C17.3525 24.0605 16.9932 25.2734 16.1621 26.52C15.4097 27.5981 14.6123 28.6875 13.4106 28.6875C12.209 28.6875 11.8945 27.9912 10.5244 27.9912C9.16553 27.9912 8.68262 28.71 7.59326 28.71C6.49268 28.71 5.71777 27.6992 4.85303 26.4751C3.83105 25.0039 3 22.7466 3 20.6016C3 17.1763 5.23486 15.3457 7.43604 15.3457C8.59277 15.3457 9.56982 16.1094 10.2998 16.1094C10.9961 16.1094 12.0742 15.3008 13.4106 15.3008ZM12.793 13.8521C12.1978 14.5708 11.187 15.1099 10.3896 15.1099C10.2998 15.1099 10.21 15.0986 10.1538 15.0874C10.1426 15.0425 10.1201 14.8965 10.1201 14.7617C10.1201 13.8521 10.5918 12.9424 11.0859 12.3696C11.7261 11.6172 12.8042 11.0669 13.6802 11.0332C13.7026 11.1343 13.7139 11.2578 13.7139 11.3813C13.7139 12.291 13.332 13.1895 12.793 13.8521Z" fill="white"/>
</svg>
