<svg width="28" height="31" viewBox="0 0 28 31" fill="none" xmlns="http://www.w3.org/2000/svg">
<path d="M18.992 6.66628V5.17474C18.992 3.67305 18.5152 2.43517 17.5615 1.4611C16.6079 0.487034 15.4006 0 13.9397 0C12.357 0 11.1193 0.497181 10.2265 1.49154C9.33368 2.48591 8.88729 3.8151 8.88729 5.47914V5.93573C8.88729 6.01691 8.89744 6.08793 8.91773 6.14881L8.94816 6.66628C7.44666 5.59075 6.09733 5.05298 4.90018 5.05298C3.96682 5.05298 3.07403 5.36753 2.22182 5.99661C1.4102 6.58511 0.811625 7.35625 0.426103 8.31003C0.142034 8.9797 0 9.64937 0 10.319C0 12.3686 1.17686 13.9312 3.53057 15.0068L3.98711 15.2198C1.32904 16.4374 0 18.0812 0 20.1511C0 21.5513 0.486975 22.779 1.46092 23.8343C2.43487 24.8895 3.59144 25.4171 4.93062 25.4171C6.14806 25.4171 7.35535 24.9808 8.5525 24.1082L8.94816 23.8038C8.90758 24.2097 8.88729 24.6967 8.88729 25.2649C8.88729 26.7869 9.36412 28.0299 10.3178 28.9938C11.2714 29.9577 12.4787 30.4397 13.9397 30.4397C15.5426 30.4397 16.7854 29.9374 17.6681 28.9329C18.5507 27.9284 18.992 26.6144 18.992 24.991V23.8038C20.4935 24.8793 21.8327 25.4171 23.0096 25.4171C24.3285 25.4171 25.4698 24.8844 26.4336 23.819C27.3974 22.7536 27.8793 21.531 27.8793 20.1511C27.8793 18.0812 26.7025 16.5084 24.3487 15.4329L23.8922 15.2198C26.5503 14.0022 27.8793 12.3686 27.8793 10.319C27.8793 8.99999 27.4025 7.79255 26.4488 6.69672C25.4952 5.6009 24.3437 5.05298 22.9943 5.05298C21.645 5.05298 20.4529 5.47914 19.4181 6.33145L18.992 6.66628ZM16.4354 11.8106C18.7891 8.38105 20.9704 6.66628 22.9791 6.66628C23.811 6.66628 24.5669 7.04171 25.2466 7.79255C25.9263 8.5434 26.2662 9.38556 26.2662 10.319C26.2662 12.8354 23.5473 14.3269 18.1094 14.7937V15.6764C20.808 15.8996 22.8422 16.3867 24.2118 17.1375C25.5814 17.8884 26.2662 18.8929 26.2662 20.1511C26.2662 21.0642 25.9365 21.9013 25.277 22.6623C24.6176 23.4233 23.8516 23.8038 22.9791 23.8038C20.9298 23.8038 18.7485 22.0789 16.4354 18.6291L15.6441 19.0857C16.8006 21.4397 17.3789 23.4284 17.3789 25.0518C17.3789 27.5682 16.2325 28.8264 13.9397 28.8264C12.844 28.8264 11.9918 28.4915 11.383 27.8218C10.7946 27.1116 10.5004 26.2187 10.5004 25.1432C10.5004 23.5197 11.0787 21.5005 12.2352 19.0857L11.4439 18.6291C9.13078 22.0789 6.94954 23.8038 4.90018 23.8038C4.06827 23.8038 3.31244 23.4436 2.63271 22.7232C1.95297 22.0028 1.6131 21.1454 1.6131 20.1511C1.6131 17.6347 4.3219 16.1432 9.7395 15.6764V14.7937C4.3219 14.3472 1.6131 12.8557 1.6131 10.319C1.6131 9.42615 1.93775 8.59413 2.58705 7.82299C3.23635 7.05185 4.0074 6.66628 4.90018 6.66628C6.90896 6.66628 9.0902 8.38105 11.4439 11.8106L12.2352 11.3844C11.0787 9.01014 10.5004 6.98083 10.5004 5.2965C10.5004 4.22097 10.7946 3.32807 11.383 2.61781C11.9918 1.94814 12.844 1.6133 13.9397 1.6133C16.2325 1.6133 17.3789 2.86133 17.3789 5.35738C17.3789 7.00112 16.8006 9.01014 15.6441 11.3844L16.4354 11.8106Z" fill="#2B2E34"/>
</svg>
