<svg width="62" height="24" viewBox="0 0 62 24" fill="none" xmlns="http://www.w3.org/2000/svg">
<path d="M28.7432 11.6726V18.7486H26.4824V1.2749H32.4759C33.9949 1.2749 35.2902 1.77783 36.3499 2.78368C37.4332 3.78952 37.9749 5.01759 37.9749 6.46788C37.9749 7.95326 37.4332 9.18133 36.3499 10.1755C35.3019 11.1696 34.0067 11.6609 32.4759 11.6609H28.7432V11.6726ZM28.7432 3.42695V9.52051H32.523C33.4179 9.52051 34.1715 9.21642 34.7603 8.61993C35.3608 8.02343 35.667 7.29829 35.667 6.47957C35.667 5.67256 35.3608 4.95911 34.7603 4.36262C34.1715 3.74274 33.4297 3.43864 32.523 3.43864H28.7432V3.42695Z" fill="white"/>
<path d="M43.8865 6.39746C45.5585 6.39746 46.8773 6.8419 47.8429 7.73079C48.8084 8.61968 49.2912 9.83606 49.2912 11.3799V18.7483H47.1364V17.0875H47.0422C46.112 18.4559 44.8638 19.1343 43.3095 19.1343C41.9789 19.1343 40.872 18.7483 39.9771 17.9647C39.0822 17.1811 38.6348 16.2103 38.6348 15.0407C38.6348 13.801 39.1058 12.8185 40.0478 12.0934C40.9898 11.3565 42.2497 10.9939 43.8158 10.9939C45.1582 10.9939 46.265 11.2396 47.1246 11.7308V11.2162C47.1246 10.4325 46.8185 9.77757 46.1944 9.22787C45.5703 8.67816 44.8402 8.40915 44.0042 8.40915C42.7443 8.40915 41.7434 8.93547 41.0133 9.9998L39.0233 8.76003C40.1184 7.18108 41.7434 6.39746 43.8865 6.39746ZM40.9662 15.0758C40.9662 15.6606 41.2135 16.1518 41.7198 16.5378C42.2144 16.9238 42.8032 17.1226 43.4743 17.1226C44.4281 17.1226 45.2759 16.7717 46.0177 16.07C46.7596 15.3682 47.1364 14.5495 47.1364 13.6021C46.4299 13.0524 45.4525 12.7717 44.1926 12.7717C43.2742 12.7717 42.5088 12.9939 41.8965 13.4267C41.2724 13.8828 40.9662 14.4325 40.9662 15.0758Z" fill="white"/>
<path d="M61.5849 6.78369L54.0489 24.0001H51.7174L54.5199 17.9767L49.5508 6.78369H52.0118L55.5914 15.3685H55.6385L59.1239 6.78369H61.5849Z" fill="white"/>
<path d="M19.7509 10.2456C19.7509 9.51343 19.685 8.81284 19.5625 8.13916H10.0859V11.9988L15.5437 12C15.3223 13.2842 14.6099 14.3789 13.5184 15.1087V17.6128H16.7671C18.6641 15.869 19.7509 13.2912 19.7509 10.2456Z" fill="#4285F4"/>
<path d="M13.5185 15.1085C12.6142 15.7144 11.4496 16.0688 10.0873 16.0688C7.45553 16.0688 5.22298 14.3074 4.42345 11.9331H1.07227V14.5156C2.73255 17.7881 6.14497 20.0337 10.0873 20.0337C12.812 20.0337 15.1011 19.1436 16.7673 17.6115L13.5185 15.1085Z" fill="#34A853"/>
<path d="M4.10832 10.0175C4.10832 9.35081 4.22018 8.70637 4.42389 8.10052V5.51807H1.07271C0.386221 6.87128 0 8.39877 0 10.0175C0 11.6362 0.387398 13.1637 1.07271 14.5169L4.42389 11.9344C4.22018 11.3286 4.10832 10.6841 4.10832 10.0175Z" fill="#FABB05"/>
<path d="M10.0873 3.96491C11.5745 3.96491 12.9062 4.47368 13.9577 5.46783L16.8367 2.61052C15.0881 0.992982 12.8085 0 10.0873 0C6.14614 0 2.73255 2.24561 1.07227 5.51812L4.42345 8.10058C5.22298 5.72631 7.45553 3.96491 10.0873 3.96491Z" fill="#E94235"/>
</svg>
