<svg width="25" height="25" viewBox="0 0 25 25" fill="none" xmlns="http://www.w3.org/2000/svg">
<path d="M25 12.5466C25 5.61655 19.4043 0 12.5 0C5.5957 0 0 5.61655 0 12.5466C0 18.4278 4.03809 23.368 9.48242 24.7255V16.3791H6.9043V12.5466H9.48242V10.8949C9.48242 6.62615 11.4063 4.64615 15.5859 4.64615C16.377 4.64615 17.7441 4.80298 18.3057 4.95981V8.42972C18.0127 8.40031 17.5 8.38071 16.8604 8.38071C14.8096 8.38071 14.0186 9.15997 14.0186 11.1841V12.5466H18.1006L17.3975 16.3791H14.0137V25C20.2051 24.2501 25 18.962 25 12.5466Z" fill="#986851"/>
<path d="M25 12.5466C25 5.61655 19.4043 0 12.5 0C5.5957 0 0 5.61655 0 12.5466C0 18.4278 4.03809 23.368 9.48242 24.7255V16.3791H6.9043V12.5466H9.48242V10.8949C9.48242 6.62615 11.4063 4.64615 15.5859 4.64615C16.377 4.64615 17.7441 4.80298 18.3057 4.95981V8.42972C18.0127 8.40031 17.5 8.38071 16.8604 8.38071C14.8096 8.38071 14.0186 9.15997 14.0186 11.1841V12.5466H18.1006L17.3975 16.3791H14.0137V25C20.2051 24.2501 25 18.962 25 12.5466Z" fill="black" fill-opacity="0.2"/>
</svg>
