<svg width="25" height="25" viewBox="0 0 25 25" fill="none" xmlns="http://www.w3.org/2000/svg">
<path d="M12.5033 6.09045C8.95622 6.09045 6.09509 8.95228 6.09509 12.5003C6.09509 16.0483 8.95622 18.9101 12.5033 18.9101C16.0505 18.9101 18.9116 16.0483 18.9116 12.5003C18.9116 8.95228 16.0505 6.09045 12.5033 6.09045ZM12.5033 16.6675C10.2111 16.6675 8.33714 14.7987 8.33714 12.5003C8.33714 10.2019 10.2055 8.33305 12.5033 8.33305C14.8012 8.33305 16.6695 10.2019 16.6695 12.5003C16.6695 14.7987 14.7956 16.6675 12.5033 16.6675ZM20.6679 5.82826C20.6679 6.65947 19.9986 7.32332 19.1732 7.32332C18.3477 7.32332 17.6785 6.65389 17.6785 5.82826C17.6785 5.00262 18.3477 4.33319 19.1732 4.33319C19.9986 4.33319 20.6679 5.00262 20.6679 5.82826ZM24.9127 7.34564C24.8179 5.34292 24.3606 3.56892 22.8938 2.10732C21.432 0.645724 19.6584 0.18772 17.6562 0.0878632C15.5926 -0.0292877 9.40742 -0.0292877 7.34384 0.0878632C5.34718 0.1827 3.57362 0.640146 2.1068 2.10174C0.639989 3.56334 0.188232 5.33734 0.0878416 7.3395C-0.0292805 9.40359 -0.0292805 15.5903 0.0878416 17.6544C0.182655 19.6571 0.639989 21.4311 2.1068 22.8927C3.57362 24.3543 5.34161 24.8117 7.34384 24.9121C9.40742 25.0293 15.5926 25.0293 17.6562 24.9121C19.6584 24.8173 21.432 24.3599 22.8932 22.8927C24.3544 21.4311 24.8118 19.6571 24.9122 17.6544C25.0293 15.5903 25.0293 9.40917 24.9122 7.34508L24.9127 7.34564ZM22.2462 19.8696C21.8112 20.963 20.969 21.8054 19.8703 22.2461C18.225 22.8988 14.321 22.7482 12.5028 22.7482C10.6846 22.7482 6.77496 22.8932 5.13525 22.2461C4.04211 21.811 3.19994 20.9686 2.75934 19.8696C2.1068 18.2239 2.25739 14.3189 2.25739 12.5003C2.25739 10.6817 2.11238 6.77104 2.75934 5.13093C3.19437 4.03752 4.03653 3.19515 5.13525 2.75444C6.78054 2.10174 10.6846 2.25237 12.5028 2.25237C14.321 2.25237 18.2306 2.10732 19.8703 2.75444C20.9635 3.18957 21.8056 4.03194 22.2462 5.13093C22.8988 6.77662 22.7482 10.6817 22.7482 12.5003C22.7482 14.3189 22.8988 18.2295 22.2462 19.8696Z" fill="#986851"/>
<path d="M12.5033 6.09045C8.95622 6.09045 6.09509 8.95228 6.09509 12.5003C6.09509 16.0483 8.95622 18.9101 12.5033 18.9101C16.0505 18.9101 18.9116 16.0483 18.9116 12.5003C18.9116 8.95228 16.0505 6.09045 12.5033 6.09045ZM12.5033 16.6675C10.2111 16.6675 8.33714 14.7987 8.33714 12.5003C8.33714 10.2019 10.2055 8.33305 12.5033 8.33305C14.8012 8.33305 16.6695 10.2019 16.6695 12.5003C16.6695 14.7987 14.7956 16.6675 12.5033 16.6675ZM20.6679 5.82826C20.6679 6.65947 19.9986 7.32332 19.1732 7.32332C18.3477 7.32332 17.6785 6.65389 17.6785 5.82826C17.6785 5.00262 18.3477 4.33319 19.1732 4.33319C19.9986 4.33319 20.6679 5.00262 20.6679 5.82826ZM24.9127 7.34564C24.8179 5.34292 24.3606 3.56892 22.8938 2.10732C21.432 0.645724 19.6584 0.18772 17.6562 0.0878632C15.5926 -0.0292877 9.40742 -0.0292877 7.34384 0.0878632C5.34718 0.1827 3.57362 0.640146 2.1068 2.10174C0.639989 3.56334 0.188232 5.33734 0.0878416 7.3395C-0.0292805 9.40359 -0.0292805 15.5903 0.0878416 17.6544C0.182655 19.6571 0.639989 21.4311 2.1068 22.8927C3.57362 24.3543 5.34161 24.8117 7.34384 24.9121C9.40742 25.0293 15.5926 25.0293 17.6562 24.9121C19.6584 24.8173 21.432 24.3599 22.8932 22.8927C24.3544 21.4311 24.8118 19.6571 24.9122 17.6544C25.0293 15.5903 25.0293 9.40917 24.9122 7.34508L24.9127 7.34564ZM22.2462 19.8696C21.8112 20.963 20.969 21.8054 19.8703 22.2461C18.225 22.8988 14.321 22.7482 12.5028 22.7482C10.6846 22.7482 6.77496 22.8932 5.13525 22.2461C4.04211 21.811 3.19994 20.9686 2.75934 19.8696C2.1068 18.2239 2.25739 14.3189 2.25739 12.5003C2.25739 10.6817 2.11238 6.77104 2.75934 5.13093C3.19437 4.03752 4.03653 3.19515 5.13525 2.75444C6.78054 2.10174 10.6846 2.25237 12.5028 2.25237C14.321 2.25237 18.2306 2.10732 19.8703 2.75444C20.9635 3.18957 21.8056 4.03194 22.2462 5.13093C22.8988 6.77662 22.7482 10.6817 22.7482 12.5003C22.7482 14.3189 22.8988 18.2295 22.2462 19.8696Z" fill="black" fill-opacity="0.2"/>
</svg>
