<svg width="166" height="90" viewBox="0 0 166 90" fill="none" xmlns="http://www.w3.org/2000/svg">
<path d="M7.33327 66.5607H5.89695V48.9276H0L0.00670425 48.8915L0.282404 47.5703H12.9478L12.952 47.5938L13.2034 48.9276H7.33327V66.5607Z" fill="#2B2E34"/>
<path d="M35.1052 66.5597H33.6689V57.5842H20.9432V66.5597H19.5068V47.7371L19.5295 47.732L20.9432 47.3965V56.2211H33.6689V47.7371L33.6915 47.732L35.1052 47.399V66.5597Z" fill="#2B2E34"/>
<path d="M53.3347 66.5607H43.3115V47.5703H53.0104L53.2928 48.9276H44.7453V56.009H51.9102V57.3923H44.7495V65.2043H53.6171L53.6096 65.2396L53.3347 66.5607Z" fill="#2B2E34"/>
<path d="M84.9108 66.5603H83.3605L83.3529 66.5427L80.1175 59.0687H72.4247L69.1867 66.5603H67.6641L67.6817 66.5192L76.2736 46.8477L76.3004 46.9089L84.9108 66.5603ZM72.9945 57.7391H79.5518L76.2736 50.1342L72.9945 57.7391Z" fill="#2B2E34"/>
<path d="M107.209 67.2859L107.157 67.2272L92.6461 50.5444V66.5603H91.209V46.8477L91.2609 46.9072L105.772 63.5581V47.741L105.794 47.7351L107.209 47.3719V67.2859Z" fill="#2B2E34"/>
<path d="M124.413 66.8565C123.123 66.8722 121.843 66.6298 120.647 66.1436C119.452 65.6573 118.365 64.937 117.452 64.0249C116.538 63.1128 115.815 62.0273 115.326 60.8319C114.837 59.6366 114.592 58.3555 114.604 57.0639C114.601 55.7632 114.857 54.4749 115.357 53.2747C115.858 52.0744 116.593 50.9863 117.519 50.0741C118.446 49.162 119.545 48.4443 120.752 47.963C121.959 47.4817 123.25 47.2465 124.549 47.2713C126.392 47.2676 128.207 47.7243 129.829 48.6L129.848 48.6101L129.844 48.6311L129.565 50.1074L129.531 50.0797C128.044 49.1272 126.315 48.6231 124.549 48.6277C123.437 48.6139 122.334 48.8225 121.304 49.2413C120.274 49.66 119.337 50.2805 118.55 51.0662C117.762 51.852 117.14 52.7873 116.718 53.8172C116.296 54.8471 116.084 55.9509 116.095 57.0639C116.076 58.1678 116.277 59.2645 116.687 60.2895C117.097 61.3145 117.707 62.2472 118.482 63.033C119.257 63.8188 120.181 64.4418 121.199 64.8654C122.218 65.289 123.311 65.5048 124.413 65.5001C126.084 65.5243 127.735 65.1381 129.221 64.3752V58.0671H123.378L123.385 58.0319L123.659 56.6831H130.657V65.2216L130.642 65.23C128.746 66.3133 126.597 66.8745 124.413 66.8565Z" fill="#2B2E34"/>
<path d="M148.482 66.5607H138.459V47.5703H148.158V47.593L148.435 48.9276H139.888V56.009H147.058V57.3923H139.898V65.2043H148.765L148.757 65.2396L148.482 66.5607Z" fill="#2B2E34"/>
<path d="M165.718 66.5597H155.992V47.7371L156.015 47.732L157.429 47.3965V65.2033H166L165.993 65.2386L165.718 66.5597Z" fill="#2B2E34"/>
<path d="M51.8235 88.9242H51.0483L51.0408 88.9066L49.498 85.3415H45.8402L44.2899 88.9242H43.5273L47.6695 79.4453L47.6964 79.5065L51.8235 88.9242ZM46.1251 84.6746H49.2148L47.6695 81.0911L46.1251 84.6746Z" fill="#986851"/>
<path d="M56.265 88.9237H55.5477V80.49H52.7236L52.8653 79.8105H58.9466L59.0739 80.49H56.265V88.9237Z" fill="#986851"/>
<path d="M73.7733 88.9243H73.056V84.6303H67.0023V88.9243H66.2842V79.8942L66.3068 79.8892L67.0023 79.7256V83.95H73.056V79.8942L73.0786 79.8892L73.7733 79.7256V88.9243Z" fill="#986851"/>
<path d="M82.487 88.9237H77.666V79.8105H82.332L82.4736 80.49H78.3808V83.8454H81.8074V84.5382H78.3808V88.2442H82.6286L82.487 88.9237Z" fill="#986851"/>
<path d="M88.6809 88.9237H87.9635V80.49H85.1387L85.2803 79.8105H91.3624L91.3666 79.8349L91.4898 80.49H88.6809V88.9237Z" fill="#986851"/>
<path d="M97.0667 88.9237H96.3494V80.49H93.5254L93.667 79.8105H99.7483L99.7525 79.8349L99.8757 80.49H97.0667V88.9237Z" fill="#986851"/>
<path d="M106.548 89.0674C105.927 89.0766 105.31 88.9618 104.735 88.7295C104.159 88.4972 103.635 88.1522 103.194 87.7147C102.754 87.2771 102.404 86.7559 102.168 86.1816C101.931 85.6072 101.811 84.9913 101.815 84.3699C101.811 83.7485 101.931 83.1326 102.168 82.5583C102.405 81.984 102.754 81.4628 103.195 81.0253C103.635 80.5878 104.159 80.2428 104.735 80.0105C105.311 79.7782 105.927 79.6632 106.548 79.6724C107.168 79.6632 107.784 79.7782 108.36 80.0105C108.936 80.2428 109.46 80.5878 109.9 81.0253C110.341 81.4628 110.69 81.984 110.927 82.5583C111.164 83.1326 111.284 83.7485 111.281 84.3699C111.284 84.9913 111.164 85.6072 110.928 86.1816C110.691 86.7559 110.341 87.2771 109.901 87.7147C109.46 88.1522 108.936 88.4972 108.36 88.7295C107.785 88.9618 107.168 89.0766 106.548 89.0674ZM106.548 80.3493C106.02 80.3452 105.497 80.4467 105.01 80.6476C104.522 80.8485 104.079 81.145 103.708 81.5195C103.336 81.894 103.043 82.3391 102.846 82.8285C102.648 83.318 102.55 83.842 102.558 84.3699C102.551 84.8975 102.649 85.4212 102.846 85.9103C103.044 86.3994 103.337 86.8441 103.709 87.2184C104.081 87.5926 104.523 87.8888 105.01 88.0896C105.498 88.2904 106.02 88.3919 106.548 88.3879C107.075 88.3919 107.597 88.2904 108.085 88.0896C108.572 87.8888 109.015 87.5926 109.386 87.2184C109.758 86.8441 110.051 86.3994 110.249 85.9103C110.446 85.4212 110.544 84.8975 110.537 84.3699C110.545 83.842 110.447 83.318 110.25 82.8285C110.052 82.3391 109.759 81.894 109.387 81.5195C109.016 81.145 108.573 80.8485 108.085 80.6476C107.598 80.4467 107.075 80.3452 106.548 80.3493Z" fill="#986851"/>
<path d="M122.456 89.2964L122.404 89.2376L115.492 81.2897V88.9231H114.773V79.4375L114.825 79.4971L121.739 87.4316V79.8947L121.761 79.8888L122.456 79.711V89.2964Z" fill="#986851"/>
<mask id="mask0_10787_5068" style="mask-type:luminance" maskUnits="userSpaceOnUse" x="57" y="0" width="52" height="31">
<path d="M57.8608 30.8197H108.376V0H57.8608V30.8197Z" fill="white"/>
</mask>
<g mask="url(#mask0_10787_5068)">
<path d="M57.8616 30.8194H59.4538C59.5863 29.0803 59.9089 27.3611 60.4158 25.6924H79.817V30.8194H81.4033V7.37305L80.5301 7.45693C74.6052 8.04746 69.0798 10.7165 64.9313 14.992C60.7829 19.2674 58.2786 24.8738 57.8616 30.8194ZM60.9621 24.1087C62.4782 20.1529 65.0279 16.6773 68.3446 14.0451C71.6614 11.4129 75.6235 9.72079 79.817 9.14551V24.1087H60.9621Z" fill="#986851"/>
<path d="M57.8616 30.8194H59.4538C59.5863 29.0803 59.9089 27.3611 60.4158 25.6924H79.817V30.8194H81.4033V7.37305L80.5301 7.45693C74.6052 8.04746 69.0798 10.7165 64.9313 14.992C60.7829 19.2674 58.2786 24.8738 57.8616 30.8194ZM60.9621 24.1087C62.4782 20.1529 65.0279 16.6773 68.3446 14.0451C71.6614 11.4129 75.6235 9.72079 79.817 9.14551V24.1087H60.9621Z" fill="black" fill-opacity="0.2"/>
<path d="M86.4205 7.55051V0.000976562H84.8342V30.8199H86.4205V9.1443C91.7796 9.88073 96.7243 12.4342 100.43 16.3787C104.136 20.3232 106.378 25.4204 106.784 30.8199H108.376C107.966 24.9991 105.555 19.5 101.552 15.2578C97.5496 11.0156 92.2026 8.29214 86.4205 7.55051Z" fill="#986851"/>
<path d="M86.4205 7.55051V0.000976562H84.8342V30.8199H86.4205V9.1443C91.7796 9.88073 96.7243 12.4342 100.43 16.3787C104.136 20.3232 106.378 25.4204 106.784 30.8199H108.376C107.966 24.9991 105.555 19.5 101.552 15.2578C97.5496 11.0156 92.2026 8.29214 86.4205 7.55051Z" fill="black" fill-opacity="0.2"/>
</g>
</svg>
