<svg width="166" height="90" viewBox="0 0 166 90" fill="none" xmlns="http://www.w3.org/2000/svg">
<path d="M7.33327 66.5603H5.89695V48.9271H0L0.00670425 48.891L0.282404 47.5698H12.9478L12.952 47.5933L13.2034 48.9271H7.33327V66.5603Z" fill="white"/>
<path d="M35.1052 66.5602H33.6689V57.5846H20.9432V66.5602H19.5068V47.7375L19.5295 47.7325L20.9432 47.397V56.2215H33.6689V47.7375L33.6915 47.7325L35.1052 47.3995V66.5602Z" fill="white"/>
<path d="M53.3347 66.5603H43.3115V47.5698H53.0104L53.2928 48.9271H44.7453V56.0085H51.9102V57.3918H44.7495V65.2039H53.6171L53.6096 65.2391L53.3347 66.5603Z" fill="white"/>
<path d="M84.9103 66.5603H83.36L83.3525 66.5427L80.117 59.0687H72.4242L69.1862 66.5603H67.6636L67.6812 66.5192L76.2731 46.8477L76.2999 46.9089L84.9103 66.5603ZM72.994 57.7391H79.5513L76.2731 50.1342L72.994 57.7391Z" fill="white"/>
<path d="M107.209 67.2859L107.157 67.2272L92.6466 50.5444V66.5603H91.2095V46.8477L91.2614 46.9072L105.773 63.5581V47.741L105.795 47.7351L107.209 47.3719V67.2859Z" fill="white"/>
<path d="M124.413 66.857C123.123 66.8727 121.843 66.6303 120.647 66.1441C119.452 65.6578 118.365 64.9375 117.452 64.0254C116.538 63.1133 115.815 62.0277 115.326 60.8324C114.837 59.6371 114.592 58.356 114.604 57.0644C114.601 55.7637 114.857 54.4754 115.357 53.2751C115.858 52.0749 116.593 50.9868 117.519 50.0746C118.446 49.1625 119.545 48.4447 120.752 47.9634C121.959 47.4821 123.25 47.247 124.549 47.2718C126.392 47.2681 128.207 47.7248 129.829 48.6005L129.848 48.6106L129.844 48.6316L129.565 50.1079L129.531 50.0802C128.044 49.1277 126.315 48.6236 124.549 48.6282C123.437 48.6144 122.334 48.823 121.304 49.2417C120.274 49.6605 119.337 50.2809 118.55 51.0667C117.762 51.8525 117.14 52.7878 116.718 53.8177C116.296 54.8476 116.084 55.9514 116.095 57.0644C116.076 58.1683 116.277 59.2649 116.687 60.29C117.097 61.315 117.707 62.2477 118.482 63.0335C119.257 63.8193 120.181 64.4422 121.199 64.8659C122.218 65.2895 123.311 65.5053 124.413 65.5006C126.084 65.5248 127.735 65.1386 129.221 64.3757V58.0676H123.378L123.385 58.0324L123.659 56.6835H130.657V65.2221L130.642 65.2305C128.746 66.3138 126.597 66.875 124.413 66.857Z" fill="white"/>
<path d="M148.482 66.5603H138.458V47.5698H148.157V47.5925L148.435 48.9271H139.887V56.0085H147.057V57.3918H139.897V65.2039H148.764L148.757 65.2391L148.482 66.5603Z" fill="white"/>
<path d="M165.717 66.5602H155.992V47.7375L156.014 47.7325L157.428 47.397V65.2038H166L165.992 65.239L165.717 66.5602Z" fill="white"/>
<path d="M51.823 88.9242H51.0478L51.0403 88.9066L49.4975 85.3415H45.8397L44.2894 88.9242H43.5269L47.669 79.4453L47.6959 79.5065L51.823 88.9242ZM46.1246 84.6746H49.2143L47.669 81.0911L46.1246 84.6746Z" fill="white"/>
<path d="M56.265 88.9242H55.5477V80.4905H52.7236L52.8653 79.811H58.9466L59.0739 80.4905H56.265V88.9242Z" fill="white"/>
<path d="M73.7733 88.9243H73.056V84.6303H67.0023V88.9243H66.2842V79.8942L66.3068 79.8892L67.0023 79.7256V83.95H73.056V79.8942L73.0786 79.8892L73.7733 79.7256V88.9243Z" fill="white"/>
<path d="M82.487 88.9242H77.666V79.811H82.332L82.4736 80.4905H78.3808V83.8458H81.8074V84.5387H78.3808V88.2447H82.6286L82.487 88.9242Z" fill="white"/>
<path d="M88.6809 88.9242H87.9635V80.4905H85.1387L85.2803 79.811H91.3624L91.3666 79.8354L91.4898 80.4905H88.6809V88.9242Z" fill="white"/>
<path d="M97.0672 88.9242H96.3499V80.4905H93.5259L93.6675 79.811H99.7488L99.753 79.8354L99.8762 80.4905H97.0672V88.9242Z" fill="white"/>
<path d="M106.547 89.0669C105.926 89.0762 105.31 88.9613 104.734 88.729C104.158 88.4967 103.635 88.1517 103.194 87.7142C102.753 87.2767 102.404 86.7554 102.167 86.1811C101.93 85.6067 101.81 84.9908 101.814 84.3694C101.81 83.748 101.93 83.1321 102.167 82.5578C102.404 81.9835 102.753 81.4623 103.194 81.0248C103.635 80.5873 104.159 80.2423 104.734 80.01C105.31 79.7777 105.926 79.6627 106.547 79.6719C107.168 79.6627 107.784 79.7777 108.36 80.01C108.935 80.2423 109.459 80.5873 109.9 81.0248C110.341 81.4623 110.69 81.9835 110.927 82.5578C111.164 83.1321 111.284 83.748 111.28 84.3694C111.284 84.9908 111.164 85.6067 110.927 86.1811C110.69 86.7554 110.341 87.2767 109.9 87.7142C109.459 88.1517 108.936 88.4967 108.36 88.729C107.784 88.9613 107.168 89.0762 106.547 89.0669ZM106.547 80.3488C106.02 80.3448 105.497 80.4462 105.009 80.6471C104.522 80.8481 104.079 81.1445 103.707 81.519C103.336 81.8935 103.042 82.3386 102.845 82.8281C102.648 83.3175 102.55 83.8416 102.557 84.3694C102.55 84.897 102.648 85.4207 102.846 85.9098C103.044 86.3989 103.337 86.8436 103.708 87.2179C104.08 87.5921 104.523 87.8883 105.01 88.0891C105.497 88.29 106.02 88.3914 106.547 88.3874C107.074 88.3914 107.597 88.29 108.084 88.0891C108.572 87.8883 109.014 87.5921 109.386 87.2179C109.757 86.8436 110.05 86.3989 110.248 85.9098C110.446 85.4207 110.544 84.897 110.537 84.3694C110.544 83.8416 110.447 83.3175 110.249 82.8281C110.052 82.3386 109.758 81.8935 109.387 81.519C109.015 81.1445 108.573 80.8481 108.085 80.6471C107.597 80.4462 107.074 80.3448 106.547 80.3488Z" fill="white"/>
<path d="M122.456 89.2968L122.404 89.2381L115.492 81.2901V88.9236H114.773V79.438L114.825 79.4975L121.739 87.4321V79.8952L121.761 79.8893L122.456 79.7114V89.2968Z" fill="white"/>
<mask id="mask0_10787_4986" style="mask-type:luminance" maskUnits="userSpaceOnUse" x="57" y="0" width="52" height="31">
<path d="M57.8608 30.8197H108.376V0H57.8608V30.8197Z" fill="white"/>
</mask>
<g mask="url(#mask0_10787_4986)">
<path d="M57.8613 30.8199H59.4535C59.586 29.0808 59.9086 27.3616 60.4155 25.6929H79.8167V30.8199H81.403V7.37354L80.5298 7.45742C74.6049 8.04795 69.0796 10.717 64.9311 14.9925C60.7826 19.2679 58.2784 24.8743 57.8613 30.8199ZM60.9619 24.1092C62.478 20.1534 65.0276 16.6778 68.3444 14.0456C71.6611 11.4134 75.6233 9.72128 79.8167 9.146V24.1092H60.9619Z" fill="#986851"/>
<path d="M57.8613 30.8199H59.4535C59.586 29.0808 59.9086 27.3616 60.4155 25.6929H79.8167V30.8199H81.403V7.37354L80.5298 7.45742C74.6049 8.04795 69.0796 10.717 64.9311 14.9925C60.7826 19.2679 58.2784 24.8743 57.8613 30.8199ZM60.9619 24.1092C62.478 20.1534 65.0276 16.6778 68.3444 14.0456C71.6611 11.4134 75.6233 9.72128 79.8167 9.146V24.1092H60.9619Z" fill="black" fill-opacity="0.2"/>
<path d="M86.4203 7.55051V0.000976562H84.834V30.8199H86.4203V9.1443C91.7793 9.88073 96.7241 12.4342 100.43 16.3787C104.135 20.3232 106.378 25.4204 106.784 30.8199H108.376C107.966 24.9991 105.555 19.5 101.552 15.2578C97.5494 11.0156 92.2024 8.29214 86.4203 7.55051Z" fill="#986851"/>
<path d="M86.4203 7.55051V0.000976562H84.834V30.8199H86.4203V9.1443C91.7793 9.88073 96.7241 12.4342 100.43 16.3787C104.135 20.3232 106.378 25.4204 106.784 30.8199H108.376C107.966 24.9991 105.555 19.5 101.552 15.2578C97.5494 11.0156 92.2024 8.29214 86.4203 7.55051Z" fill="black" fill-opacity="0.2"/>
</g>
</svg>
