<svg width="21" height="25" viewBox="0 0 21 25" fill="none" xmlns="http://www.w3.org/2000/svg">
<path d="M10.5 12.5C11.2219 12.5 11.8398 12.2552 12.3539 11.7656C12.868 11.276 13.125 10.6875 13.125 10C13.125 9.3125 12.868 8.72396 12.3539 8.23438C11.8398 7.74479 11.2219 7.5 10.5 7.5C9.77812 7.5 9.16016 7.74479 8.64609 8.23438C8.13203 8.72396 7.875 9.3125 7.875 10C7.875 10.6875 8.13203 11.276 8.64609 11.7656C9.16016 12.2552 9.77812 12.5 10.5 12.5ZM10.5 21.6875C13.1687 19.3542 15.1484 17.2344 16.4391 15.3281C17.7297 13.4219 18.375 11.7292 18.375 10.25C18.375 7.97917 17.6148 6.11979 16.0945 4.67188C14.5742 3.22396 12.7094 2.5 10.5 2.5C8.29062 2.5 6.42578 3.22396 4.90547 4.67188C3.38516 6.11979 2.625 7.97917 2.625 10.25C2.625 11.7292 3.27031 13.4219 4.56094 15.3281C5.85156 17.2344 7.83125 19.3542 10.5 21.6875ZM10.5 25C6.97812 22.1458 4.34766 19.4948 2.60859 17.0469C0.869531 14.599 0 12.3333 0 10.25C0 7.125 1.05547 4.63542 3.16641 2.78125C5.27734 0.927083 7.72187 0 10.5 0C13.2781 0 15.7227 0.927083 17.8336 2.78125C19.9445 4.63542 21 7.125 21 10.25C21 12.3333 20.1305 14.599 18.3914 17.0469C16.6523 19.4948 14.0219 22.1458 10.5 25Z" fill="#986851"/>
<path d="M10.5 12.5C11.2219 12.5 11.8398 12.2552 12.3539 11.7656C12.868 11.276 13.125 10.6875 13.125 10C13.125 9.3125 12.868 8.72396 12.3539 8.23438C11.8398 7.74479 11.2219 7.5 10.5 7.5C9.77812 7.5 9.16016 7.74479 8.64609 8.23438C8.13203 8.72396 7.875 9.3125 7.875 10C7.875 10.6875 8.13203 11.276 8.64609 11.7656C9.16016 12.2552 9.77812 12.5 10.5 12.5ZM10.5 21.6875C13.1687 19.3542 15.1484 17.2344 16.4391 15.3281C17.7297 13.4219 18.375 11.7292 18.375 10.25C18.375 7.97917 17.6148 6.11979 16.0945 4.67188C14.5742 3.22396 12.7094 2.5 10.5 2.5C8.29062 2.5 6.42578 3.22396 4.90547 4.67188C3.38516 6.11979 2.625 7.97917 2.625 10.25C2.625 11.7292 3.27031 13.4219 4.56094 15.3281C5.85156 17.2344 7.83125 19.3542 10.5 21.6875ZM10.5 25C6.97812 22.1458 4.34766 19.4948 2.60859 17.0469C0.869531 14.599 0 12.3333 0 10.25C0 7.125 1.05547 4.63542 3.16641 2.78125C5.27734 0.927083 7.72187 0 10.5 0C13.2781 0 15.7227 0.927083 17.8336 2.78125C19.9445 4.63542 21 7.125 21 10.25C21 12.3333 20.1305 14.599 18.3914 17.0469C16.6523 19.4948 14.0219 22.1458 10.5 25Z" fill="black" fill-opacity="0.2"/>
</svg>
