<svg width="23" height="23" viewBox="0 0 23 23" fill="none" xmlns="http://www.w3.org/2000/svg">
<path d="M1.34167 23C0.958333 23 0.638889 22.8722 0.383333 22.6167C0.127778 22.3611 0 22.0417 0 21.6583V16.4833C0 16.2065 0.0958333 15.9563 0.2875 15.7326C0.479167 15.509 0.724074 15.3546 1.02222 15.2694L5.43056 14.375C5.7287 14.3324 6.03218 14.359 6.34097 14.4549C6.64977 14.5507 6.9 14.6944 7.09167 14.8861L10.0944 17.8889C10.9037 17.4204 11.6704 16.9039 12.3944 16.3396C13.1185 15.7752 13.8106 15.163 14.4708 14.5028C15.1736 13.8213 15.8178 13.1132 16.4035 12.3785C16.9891 11.6438 17.4949 10.8824 17.9208 10.0944L14.8222 6.96389C14.6519 6.79352 14.5347 6.5912 14.4708 6.35695C14.4069 6.12269 14.3963 5.83519 14.4389 5.49444L15.2694 1.02222C15.312 0.74537 15.4505 0.505787 15.6847 0.303472C15.919 0.101157 16.1852 0 16.4833 0H21.6583C22.0417 0 22.3611 0.127778 22.6167 0.383333C22.8722 0.638889 23 0.958333 23 1.34167C23 4.0037 22.4197 6.6338 21.259 9.23195C20.0984 11.8301 18.4532 14.194 16.3236 16.3236C14.194 18.4532 11.8301 20.0984 9.23195 21.259C6.6338 22.4197 4.0037 23 1.34167 23ZM19.1028 7.66667C19.4648 6.83611 19.7417 5.99491 19.9333 5.14306C20.125 4.2912 20.2741 3.4287 20.3806 2.55556H17.5694L16.9944 5.55833L19.1028 7.66667ZM7.66667 19.0389L5.55833 16.9306L2.55556 17.5694V20.3806C3.4287 20.3167 4.2912 20.1676 5.14306 19.9333C5.99491 19.6991 6.83611 19.4009 7.66667 19.0389Z" fill="#986851"/>
<path d="M1.34167 23C0.958333 23 0.638889 22.8722 0.383333 22.6167C0.127778 22.3611 0 22.0417 0 21.6583V16.4833C0 16.2065 0.0958333 15.9563 0.2875 15.7326C0.479167 15.509 0.724074 15.3546 1.02222 15.2694L5.43056 14.375C5.7287 14.3324 6.03218 14.359 6.34097 14.4549C6.64977 14.5507 6.9 14.6944 7.09167 14.8861L10.0944 17.8889C10.9037 17.4204 11.6704 16.9039 12.3944 16.3396C13.1185 15.7752 13.8106 15.163 14.4708 14.5028C15.1736 13.8213 15.8178 13.1132 16.4035 12.3785C16.9891 11.6438 17.4949 10.8824 17.9208 10.0944L14.8222 6.96389C14.6519 6.79352 14.5347 6.5912 14.4708 6.35695C14.4069 6.12269 14.3963 5.83519 14.4389 5.49444L15.2694 1.02222C15.312 0.74537 15.4505 0.505787 15.6847 0.303472C15.919 0.101157 16.1852 0 16.4833 0H21.6583C22.0417 0 22.3611 0.127778 22.6167 0.383333C22.8722 0.638889 23 0.958333 23 1.34167C23 4.0037 22.4197 6.6338 21.259 9.23195C20.0984 11.8301 18.4532 14.194 16.3236 16.3236C14.194 18.4532 11.8301 20.0984 9.23195 21.259C6.6338 22.4197 4.0037 23 1.34167 23ZM19.1028 7.66667C19.4648 6.83611 19.7417 5.99491 19.9333 5.14306C20.125 4.2912 20.2741 3.4287 20.3806 2.55556H17.5694L16.9944 5.55833L19.1028 7.66667ZM7.66667 19.0389L5.55833 16.9306L2.55556 17.5694V20.3806C3.4287 20.3167 4.2912 20.1676 5.14306 19.9333C5.99491 19.6991 6.83611 19.4009 7.66667 19.0389Z" fill="black" fill-opacity="0.2"/>
</svg>
