<svg width="98" height="107" viewBox="0 0 98 107" fill="none" xmlns="http://www.w3.org/2000/svg">
<path d="M66.7598 23.433V18.19C66.7598 12.9113 65.0837 8.56 61.7314 5.136C58.3792 1.712 54.1354 0 49 0C43.4367 0 39.0859 1.74767 35.9476 5.243C32.8093 8.73833 31.2402 13.4107 31.2402 19.26V20.865C31.2402 21.1503 31.2758 21.4 31.3472 21.614L31.4541 23.433C26.1761 19.6523 21.433 17.762 17.2249 17.762C13.944 17.762 10.8057 18.8677 7.81004 21.079C4.95706 23.1477 2.85298 25.8583 1.49782 29.211C0.499272 31.565 0 33.919 0 36.273C0 43.4777 4.13683 48.9703 12.4105 52.751L14.0153 53.5C4.67176 57.78 0 63.558 0 70.834C0 75.756 1.71179 80.0717 5.13537 83.781C8.55895 87.4903 12.6245 89.345 17.3319 89.345C21.6114 89.345 25.8552 87.8113 30.0633 84.744L31.4541 83.674C31.3115 85.1007 31.2402 86.8127 31.2402 88.81C31.2402 94.16 32.9163 98.5292 36.2686 101.918C39.6208 105.306 43.8646 107 49 107C54.6346 107 59.0033 105.234 62.1059 101.703C65.2085 98.1725 66.7598 93.5537 66.7598 87.847V83.674C72.0378 87.4547 76.7453 89.345 80.8821 89.345C85.5182 89.345 89.5302 87.4725 92.9181 83.7275C96.306 79.9825 98 75.6847 98 70.834C98 63.558 93.8632 58.0297 85.5895 54.249L83.9847 53.5C93.3282 49.22 98 43.4777 98 36.273C98 31.6363 96.3239 27.392 92.9716 23.54C89.6194 19.688 85.5717 17.762 80.8286 17.762C76.0855 17.762 71.8952 19.26 68.2576 22.256L66.7598 23.433ZM57.7729 41.516C66.0466 29.4607 73.714 23.433 80.7751 23.433C83.6994 23.433 86.3563 24.7527 88.7456 27.392C91.135 30.0313 92.3297 32.9917 92.3297 36.273C92.3297 45.1183 82.7722 50.3613 63.6572 52.002V55.105C73.1434 55.8897 80.2937 57.6017 85.1081 60.241C89.9225 62.8803 92.3297 66.4113 92.3297 70.834C92.3297 74.044 91.1707 76.9865 88.8526 79.6615C86.5346 82.3365 83.8421 83.674 80.7751 83.674C73.5713 83.674 65.9039 77.6107 57.7729 65.484L54.9913 67.089C59.0568 75.3637 61.0895 82.3543 61.0895 88.061C61.0895 96.9063 57.0597 101.329 49 101.329C45.1485 101.329 42.1528 100.152 40.0131 97.798C37.9447 95.3013 36.9105 92.1627 36.9105 88.382C36.9105 82.6753 38.9432 75.5777 43.0087 67.089L40.2271 65.484C32.0961 77.6107 24.4287 83.674 17.2249 83.674C14.3006 83.674 11.6437 82.4078 9.25437 79.8755C6.86499 77.3432 5.67031 74.3293 5.67031 70.834C5.67031 61.9887 15.1921 56.7457 34.2358 55.105V52.002C15.1921 50.4327 5.67031 45.1897 5.67031 36.273C5.67031 33.1343 6.8115 30.2097 9.09389 27.499C11.3763 24.7883 14.0866 23.433 17.2249 23.433C24.286 23.433 31.9534 29.4607 40.2271 41.516L43.0087 40.018C38.9432 31.672 36.9105 24.5387 36.9105 18.618C36.9105 14.8373 37.9447 11.6987 40.0131 9.202C42.1528 6.848 45.1485 5.671 49 5.671C57.0597 5.671 61.0895 10.058 61.0895 18.832C61.0895 24.61 59.0568 31.672 54.9913 40.018L57.7729 41.516Z" fill="white"/>
</svg>
